<svg width="20" height="20" viewBox="0 0 20 20" fill="none" xmlns="http://www.w3.org/2000/svg">
<path d="M9.99998 18.958C7.97998 18.958 6.51998 18.958 5.34498 18.8005C4.02248 18.623 3.12998 18.238 2.44498 17.5555C1.76248 16.873 1.37748 15.978 1.19998 14.6555C1.04248 13.4805 1.04248 12.0205 1.04248 10.0005C1.04248 7.98047 1.04248 6.52047 1.19998 5.34547C1.37748 4.02297 1.76248 3.13047 2.44498 2.44547C3.12748 1.76047 4.02248 1.37797 5.34498 1.20047C6.51998 1.04297 7.97998 1.04297 9.99998 1.04297C12.02 1.04297 13.48 1.04297 14.655 1.20047C15.9775 1.37797 16.87 1.76297 17.555 2.44547C18.2375 3.12797 18.6225 4.02297 18.8 5.34547C18.9575 6.52047 18.9575 7.98047 18.9575 10.0005C18.9575 12.0205 18.9575 13.4805 18.8 14.6555C18.6225 15.978 18.2375 16.8705 17.555 17.5555C16.8725 18.238 15.9775 18.623 14.655 18.8005C13.48 18.958 12.02 18.958 9.99998 18.958ZM9.99998 2.29297C6.24998 2.29297 4.36748 2.29297 3.32998 3.33047C2.29248 4.36797 2.29248 6.25047 2.29248 10.0005C2.29248 13.7505 2.29248 15.633 3.32998 16.6705C4.36748 17.708 6.24998 17.708 9.99998 17.708C13.75 17.708 15.6325 17.708 16.67 16.6705C17.7075 15.633 17.7075 13.7505 17.7075 10.0005C17.7075 6.25047 17.7075 4.36797 16.67 3.33047C15.6325 2.29297 13.75 2.29297 9.99998 2.29297Z" fill="white"/>
<path d="M15 15.2075H11.6675C11.3225 15.2075 11.0425 14.9275 11.0425 14.5825C11.0425 14.2375 11.3225 13.9575 11.6675 13.9575H15C15.345 13.9575 15.625 14.2375 15.625 14.5825C15.625 14.9275 15.345 15.2075 15 15.2075ZM7.9175 15.2075C7.7575 15.2075 7.5975 15.1475 7.475 15.025L6.6675 14.2175L5.8575 15.025C5.6125 15.27 5.2175 15.27 4.9725 15.025C4.7275 14.78 4.7275 14.385 4.9725 14.14L5.78 13.3325L4.975 12.525C4.73 12.28 4.73 11.885 4.975 11.64C5.22 11.395 5.615 11.395 5.86 11.64L6.6675 12.4475L7.475 11.64C7.72 11.395 8.115 11.395 8.36 11.64C8.605 11.885 8.605 12.28 8.36 12.525L7.55 13.3325L8.3575 14.14C8.6025 14.385 8.6025 14.78 8.3575 15.025C8.2375 15.1475 8.0775 15.2075 7.9175 15.2075ZM15 12.7075H11.6675C11.3225 12.7075 11.0425 12.4275 11.0425 12.0825C11.0425 11.7375 11.3225 11.4575 11.6675 11.4575H15C15.345 11.4575 15.625 11.7375 15.625 12.0825C15.625 12.4275 15.345 12.7075 15 12.7075ZM6.6675 9.37504C6.3225 9.37504 6.0425 9.09504 6.0425 8.75004V7.70754H5C4.655 7.70754 4.375 7.42754 4.375 7.08254C4.375 6.73754 4.655 6.45754 5 6.45754H6.0425V5.41504C6.0425 5.07004 6.3225 4.79004 6.6675 4.79004C7.0125 4.79004 7.2925 5.07004 7.2925 5.41504V6.45754H8.335C8.68 6.45754 8.96 6.73754 8.96 7.08254C8.96 7.42754 8.68 7.70754 8.335 7.70754H7.2925V8.75004C7.2925 9.09504 7.0125 9.37504 6.6675 9.37504ZM15 7.70754H11.6675C11.3225 7.70754 11.0425 7.42754 11.0425 7.08254C11.0425 6.73754 11.3225 6.45754 11.6675 6.45754H15C15.345 6.45754 15.625 6.73754 15.625 7.08254C15.625 7.42754 15.345 7.70754 15 7.70754Z" fill="white"/>
</svg>
