<svg width="20" height="20" viewBox="0 0 20 20" fill="none" xmlns="http://www.w3.org/2000/svg">
<g clip-path="url(#clip0_51_1308)">
<path d="M16.0782 1.76465C16.304 1.76465 16.5136 1.88152 16.6329 2.07324L19.9015 7.32324C20.0583 7.57519 20.0256 7.90105 19.8224 8.11719L10.4757 18.0293C10.3522 18.1604 10.18 18.2353 10.0001 18.2354C9.82029 18.2354 9.64803 18.161 9.52454 18.0303L0.177856 8.11719C-0.025692 7.90129 -0.0580727 7.57524 0.0987549 7.32324L3.36633 2.07324C3.48575 1.88152 3.6963 1.76465 3.922 1.76465H16.0782ZM10.0011 15.8271L13.0236 8.32324H7.0011L10.0011 15.8271ZM8.11438 14.6289L5.59192 8.32324H2.16907L8.11438 14.6289ZM11.8995 14.6133L17.8312 8.32324H14.4327L11.8995 14.6133ZM1.8302 7.01562H5.49817L6.2843 3.07227H4.28528L1.8302 7.01562ZM14.547 7.01562H18.17L15.715 3.07227H13.7042L14.547 7.01562ZM6.83118 7.01562H13.2101L12.3673 3.07227H7.61731L6.83118 7.01562Z" fill="white"/>
</g>
<defs>
<clipPath id="clip0_51_1308">
<rect width="20" height="20" fill="white"/>
</clipPath>
</defs>
</svg>
