<svg width="135" height="25" viewBox="0 0 135 25" fill="none" xmlns="http://www.w3.org/2000/svg">
<path d="M17.3364 20.3342V24H2.16549L0.499229 20.3501L9.37008 0.735843H14.0673L5.19649 20.3501C7.23832 20.3501 9.10559 20.3448 10.7983 20.3342H17.3364ZM32.1429 0.0693387C33.624 0.0693387 35.0628 0.217451 36.4593 0.513675C37.8664 0.799319 39.1888 1.20663 40.4266 1.7356C41.6644 2.26457 42.7964 2.90462 43.8226 3.65576C44.8488 4.39632 45.7322 5.22152 46.4728 6.13135C47.2239 7.0306 47.8058 8.00391 48.2184 9.05127C48.631 10.0881 48.8373 11.1672 48.8373 12.2886C48.8373 13.41 48.631 14.4944 48.2184 15.5417C47.8058 16.5785 47.2239 17.5518 46.4728 18.4617C45.7322 19.3609 44.8488 20.1861 43.8226 20.9373C42.7964 21.6778 41.6644 22.3126 40.4266 22.8416C39.1888 23.3705 37.8664 23.7778 36.4593 24.0635C35.0628 24.3597 33.624 24.5078 32.1429 24.5078C30.6618 24.5078 29.2177 24.3597 27.8107 24.0635C26.4142 23.7778 25.097 23.3705 23.8592 22.8416C22.6214 22.3126 21.4842 21.6778 20.4474 20.9373C19.4212 20.1861 18.5378 19.3609 17.7972 18.4617C17.0567 17.5518 16.4801 16.5785 16.0675 15.5417C15.6549 14.4944 15.4486 13.41 15.4486 12.2886C15.4486 11.1672 15.6549 10.0881 16.0675 9.05127C16.4801 8.00391 17.0567 7.0306 17.7972 6.13135C18.5378 5.22152 19.4212 4.39632 20.4474 3.65576C21.4842 2.90462 22.6214 2.26457 23.8592 1.7356C25.097 1.20663 26.4142 0.799319 27.8107 0.513675C29.2177 0.217451 30.6618 0.0693387 32.1429 0.0693387ZM19.9713 12.2886C19.9713 13.2196 20.13 14.0765 20.4474 14.8594C20.7648 15.6423 21.2038 16.3458 21.7645 16.97C22.3358 17.5942 23.0023 18.139 23.764 18.6045C24.5363 19.07 25.3721 19.4614 26.2713 19.7788C27.1706 20.0856 28.1175 20.3184 29.1119 20.4771C30.1064 20.6252 31.1114 20.6992 32.1271 20.6992C33.1427 20.6992 34.1477 20.6252 35.1422 20.4771C36.1367 20.3184 37.0835 20.0856 37.9828 19.7788C38.8926 19.4614 39.7284 19.07 40.4901 18.6045C41.2624 18.1284 41.9289 17.5783 42.4896 16.9541C43.0609 16.3299 43.5052 15.6317 43.8226 14.8594C44.14 14.0765 44.2987 13.2196 44.2987 12.2886C44.2987 11.347 44.14 10.4901 43.8226 9.71778C43.5052 8.9349 43.0609 8.23137 42.4896 7.60718C41.9289 6.98299 41.2624 6.43815 40.4901 5.97266C39.7284 5.50716 38.8926 5.12101 37.9828 4.81421C37.0835 4.49683 36.1367 4.26408 35.1422 4.11597C34.1477 3.95728 33.1427 3.87793 32.1271 3.87793C31.1114 3.87793 30.1064 3.95728 29.1119 4.11597C28.1175 4.26408 27.1706 4.49683 26.2713 4.81421C25.3721 5.12101 24.5363 5.51245 23.764 5.98853C23.0023 6.45402 22.3358 6.99886 21.7645 7.62305C21.2038 8.24723 20.7648 8.95077 20.4474 9.73364C20.13 10.5059 19.9713 11.3576 19.9713 12.2886ZM65.4688 11.1301H69.2615C70.002 11.1301 70.7902 11.1354 71.626 11.146C72.4723 11.146 73.3451 11.146 74.2444 11.146H81.5601V24.0159H77.7673V19.9216C77.1008 20.567 76.3656 21.1753 75.5615 21.7466C74.7575 22.3073 73.8635 22.7992 72.8796 23.2224C71.8958 23.6456 70.8114 23.9788 69.6265 24.2222C68.4521 24.4655 67.1562 24.5872 65.7385 24.5872C63.9718 24.5872 62.3425 24.4232 60.8508 24.0952C59.3591 23.7673 58.005 23.3176 56.7883 22.7463C55.5823 22.1645 54.519 21.4768 53.5986 20.6833C52.6782 19.8793 51.9059 19.0065 51.2817 18.0649C50.6681 17.1128 50.2026 16.1077 49.8853 15.0498C49.5679 13.9919 49.4092 12.9181 49.4092 11.8284C49.4092 10.7281 49.6208 9.67546 50.0439 8.67041C50.4671 7.66537 51.0543 6.73438 51.8054 5.87744C52.5566 5.00993 53.4558 4.22176 54.5032 3.51294C55.5505 2.80412 56.6984 2.20109 57.9468 1.70386C59.1952 1.20663 60.5229 0.825768 61.9299 0.561282C63.3476 0.286217 64.797 0.148684 66.2781 0.148684C67.738 0.148684 69.1451 0.302086 70.4993 0.608889C71.8534 0.905113 73.123 1.323 74.3079 1.86255C75.5033 2.4021 76.5877 3.04216 77.561 3.78272C78.5449 4.5127 79.3913 5.30615 80.1001 6.16309L76.4978 8.35303C76.4026 8.23666 76.2386 8.05152 76.0059 7.79761C75.7731 7.53312 75.461 7.24219 75.0696 6.92481C74.6887 6.59684 74.2179 6.26359 73.6572 5.92505C73.1071 5.57593 72.4565 5.26384 71.7053 4.98877C70.9648 4.70313 70.1184 4.47038 69.1663 4.29053C68.2141 4.1001 67.1562 4.00489 65.9924 4.00489C63.9823 4.00489 62.2103 4.24821 60.6763 4.73487C59.1423 5.22152 57.8569 5.86686 56.8201 6.6709C55.7833 7.46436 55.0004 8.3689 54.4714 9.38452C53.9425 10.4001 53.678 11.4422 53.678 12.5107C53.678 12.5319 53.678 12.5531 53.678 12.5742C53.678 13.611 53.9319 14.6319 54.4397 15.637C54.9475 16.642 55.7039 17.5466 56.709 18.3506C57.714 19.144 58.9571 19.7841 60.4382 20.2708C61.9194 20.7574 63.6279 21.0007 65.564 21.0007C66.3468 21.0007 67.1456 20.932 67.9602 20.7944C68.7748 20.6569 69.5683 20.4559 70.3406 20.1914C71.1129 19.9269 71.8534 19.6095 72.5623 19.2393C73.2817 18.869 73.9323 18.4511 74.5142 17.9856C75.1066 17.5095 75.6197 16.9964 76.0535 16.4463C76.4872 15.8856 76.8099 15.2931 77.0215 14.6689H65.5005C65.1619 14.6689 64.7494 14.6901 64.2627 14.7324C63.776 14.7642 63.2524 14.8382 62.6917 14.9546C62.1415 15.0604 61.6178 15.2085 61.1206 15.3989C60.634 15.5894 60.2372 15.8274 59.9304 16.113L57.4072 13.5898C57.8092 13.209 58.2536 12.8863 58.7402 12.6218C59.2269 12.3573 59.7294 12.1352 60.2478 11.9553C60.7662 11.7649 61.2846 11.6168 61.803 11.511C62.3214 11.4052 62.8133 11.3258 63.2788 11.273C63.7443 11.2095 64.1675 11.1724 64.5483 11.1619C64.9292 11.1407 65.236 11.1301 65.4688 11.1301ZM99.112 0.0693387C100.593 0.0693387 102.032 0.217451 103.428 0.513675C104.835 0.799319 106.158 1.20663 107.396 1.7356C108.633 2.26457 109.765 2.90462 110.792 3.65576C111.818 4.39632 112.701 5.22152 113.442 6.13135C114.193 7.0306 114.775 8.00391 115.187 9.05127C115.6 10.0881 115.806 11.1672 115.806 12.2886C115.806 13.41 115.6 14.4944 115.187 15.5417C114.775 16.5785 114.193 17.5518 113.442 18.4617C112.701 19.3609 111.818 20.1861 110.792 20.9373C109.765 21.6778 108.633 22.3126 107.396 22.8416C106.158 23.3705 104.835 23.7778 103.428 24.0635C102.032 24.3597 100.593 24.5078 99.112 24.5078C97.6308 24.5078 96.1867 24.3597 94.7797 24.0635C93.3832 23.7778 92.0661 23.3705 90.8283 22.8416C89.5905 22.3126 88.4532 21.6778 87.4164 20.9373C86.3902 20.1861 85.5068 19.3609 84.7663 18.4617C84.0257 17.5518 83.4491 16.5785 83.0365 15.5417C82.6239 14.4944 82.4176 13.41 82.4176 12.2886C82.4176 11.1672 82.6239 10.0881 83.0365 9.05127C83.4491 8.00391 84.0257 7.0306 84.7663 6.13135C85.5068 5.22152 86.3902 4.39632 87.4164 3.65576C88.4532 2.90462 89.5905 2.26457 90.8283 1.7356C92.0661 1.20663 93.3832 0.799319 94.7797 0.513675C96.1867 0.217451 97.6308 0.0693387 99.112 0.0693387ZM86.9403 12.2886C86.9403 13.2196 87.099 14.0765 87.4164 14.8594C87.7338 15.6423 88.1728 16.3458 88.7335 16.97C89.3048 17.5942 89.9713 18.139 90.7331 18.6045C91.5054 19.07 92.3411 19.4614 93.2404 19.7788C94.1396 20.0856 95.0865 20.3184 96.081 20.4771C97.0754 20.6252 98.0805 20.6992 99.0961 20.6992C100.112 20.6992 101.117 20.6252 102.111 20.4771C103.106 20.3184 104.053 20.0856 104.952 19.7788C105.862 19.4614 106.697 19.07 107.459 18.6045C108.231 18.1284 108.898 17.5783 109.459 16.9541C110.03 16.3299 110.474 15.6317 110.792 14.8594C111.109 14.0765 111.268 13.2196 111.268 12.2886C111.268 11.347 111.109 10.4901 110.792 9.71778C110.474 8.9349 110.03 8.23137 109.459 7.60718C108.898 6.98299 108.231 6.43815 107.459 5.97266C106.697 5.50716 105.862 5.12101 104.952 4.81421C104.053 4.49683 103.106 4.26408 102.111 4.11597C101.117 3.95728 100.112 3.87793 99.0961 3.87793C98.0805 3.87793 97.0754 3.95728 96.081 4.11597C95.0865 4.26408 94.1396 4.49683 93.2404 4.81421C92.3411 5.12101 91.5054 5.51245 90.7331 5.98853C89.9713 6.45402 89.3048 6.99886 88.7335 7.62305C88.1728 8.24723 87.7338 8.95077 87.4164 9.73364C87.099 10.5059 86.9403 11.3576 86.9403 12.2886Z" fill="black"/>
<path d="M130.772 11.0508C131.343 11.3999 131.856 11.7966 132.311 12.241C132.766 12.6747 133.157 13.1508 133.485 13.6692C133.813 14.1876 134.062 14.7377 134.231 15.3196C134.411 15.9014 134.501 16.5045 134.501 17.1287C134.501 18.176 134.252 19.1599 133.755 20.0803C133.268 21.0007 132.602 21.8101 131.755 22.5083C130.92 23.196 129.936 23.7355 128.804 24.127C127.672 24.529 126.46 24.73 125.17 24.73C123.879 24.73 122.668 24.529 121.536 24.127C120.404 23.7355 119.415 23.196 118.568 22.5083C117.722 21.8101 117.055 21.0007 116.569 20.0803C116.082 19.1599 115.839 18.176 115.839 17.1287C115.839 16.5045 115.923 15.9014 116.093 15.3196C116.272 14.7377 116.521 14.1876 116.838 13.6692C117.166 13.1508 117.558 12.6747 118.013 12.241C118.478 11.7966 118.991 11.3999 119.552 11.0508C118.938 10.4795 118.457 9.82357 118.108 9.08301C117.769 8.34245 117.6 7.55428 117.6 6.71851C117.6 5.82984 117.796 4.99406 118.187 4.21118C118.589 3.41773 119.129 2.73006 119.806 2.1482C120.494 1.56633 121.298 1.10612 122.218 0.767581C123.138 0.429039 124.122 0.259768 125.17 0.259768C126.217 0.259768 127.196 0.429039 128.106 0.767581C129.026 1.10612 129.83 1.56633 130.518 2.1482C131.205 2.73006 131.745 3.41773 132.136 4.21118C132.538 4.99406 132.739 5.82984 132.739 6.71851C132.739 7.55428 132.565 8.34245 132.216 9.08301C131.866 9.82357 131.385 10.4795 130.772 11.0508ZM122.186 4.94116C122.102 5.01522 122.006 5.11044 121.901 5.22681C121.795 5.34318 121.694 5.47543 121.599 5.62354C121.504 5.77165 121.425 5.94092 121.361 6.13135C121.298 6.3112 121.266 6.50692 121.266 6.71851C121.266 6.9301 121.298 7.13111 121.361 7.32154C121.425 7.50139 121.504 7.66537 121.599 7.81348C121.694 7.96159 121.795 8.09383 121.901 8.21021C122.006 8.32658 122.102 8.4218 122.186 8.49585C122.567 8.81323 123.017 9.06185 123.535 9.2417C124.054 9.41097 124.598 9.49561 125.17 9.49561C125.741 9.49561 126.281 9.41097 126.788 9.2417C127.307 9.06185 127.756 8.81323 128.137 8.49585C128.222 8.4218 128.317 8.32658 128.423 8.21021C128.539 8.09383 128.645 7.96159 128.74 7.81348C128.835 7.66537 128.915 7.50139 128.978 7.32154C129.042 7.13111 129.074 6.9301 129.074 6.71851C129.074 6.50692 129.042 6.3112 128.978 6.13135C128.915 5.94092 128.835 5.77165 128.74 5.62354C128.645 5.47543 128.539 5.34318 128.423 5.22681C128.317 5.11044 128.222 5.01522 128.137 4.94116C127.756 4.6132 127.307 4.36459 126.788 4.19531C126.281 4.01546 125.741 3.92554 125.17 3.92554C124.598 3.92554 124.054 4.01546 123.535 4.19531C123.017 4.36459 122.567 4.6132 122.186 4.94116ZM129.439 19.6519C129.565 19.5461 129.708 19.4138 129.867 19.2551C130.036 19.0964 130.19 18.9113 130.327 18.6997C130.465 18.4775 130.581 18.2395 130.676 17.9856C130.772 17.7211 130.819 17.4355 130.819 17.1287C130.819 16.8219 130.772 16.5362 130.676 16.2717C130.581 16.0072 130.465 15.7692 130.327 15.5576C130.19 15.346 130.036 15.1609 129.867 15.0022C129.708 14.8329 129.565 14.6954 129.439 14.5896C128.888 14.1453 128.243 13.8014 127.502 13.5581C126.762 13.3148 125.984 13.1931 125.17 13.1931C124.345 13.1931 123.562 13.3148 122.821 13.5581C122.081 13.8014 121.435 14.1453 120.885 14.5896C120.758 14.6954 120.61 14.8329 120.441 15.0022C120.282 15.1609 120.134 15.346 119.996 15.5576C119.859 15.7692 119.742 16.0072 119.647 16.2717C119.552 16.5362 119.504 16.8219 119.504 17.1287C119.504 17.4355 119.552 17.7211 119.647 17.9856C119.742 18.2395 119.859 18.4775 119.996 18.6997C120.134 18.9113 120.282 19.0964 120.441 19.2551C120.61 19.4138 120.758 19.5461 120.885 19.6519C121.435 20.1068 122.081 20.4559 122.821 20.6992C123.562 20.9425 124.345 21.0642 125.17 21.0642C125.984 21.0642 126.762 20.9425 127.502 20.6992C128.243 20.4559 128.888 20.1068 129.439 19.6519Z" fill="#0867FF"/>
</svg>
