<svg width="351" height="447" viewBox="0 0 351 447" fill="none" xmlns="http://www.w3.org/2000/svg">
<rect width="350" height="447" rx="20" fill="#1A1A1A"/>
<rect x="115.5" y="40.5" width="119" height="119" rx="59.5" fill="#303030"/>
<rect x="115.5" y="40.5" width="119" height="119" rx="59.5" fill="url(#paint0_radial_26_582)" fill-opacity="0.2"/>
<rect x="115.5" y="40.5" width="119" height="119" rx="59.5" stroke="url(#paint1_linear_26_582)"/>
<mask id="mask0_26_582" style="mask-type:alpha" maskUnits="userSpaceOnUse" x="115" y="40" width="120" height="120">
<rect x="115" y="40" width="120" height="120" rx="60" fill="#0867FF"/>
</mask>
<g mask="url(#mask0_26_582)">
<ellipse cx="175.5" cy="164" rx="39.5" ry="14" fill="white"/>
<ellipse cx="175.5" cy="164" rx="39.5" ry="14" fill="url(#paint2_linear_26_582)" fill-opacity="0.4"/>
<ellipse cx="175.5" cy="164" rx="39.5" ry="14" fill="#FFEDA4" style="mix-blend-mode:color"/>
<path opacity="0.3" d="M188 159.5L150 121.5L193 72.5L241.5 121.5L224.5 144.5L188 159.5Z" fill="black"/>
</g>
<mask id="mask1_26_582" style="mask-type:luminance" maskUnits="userSpaceOnUse" x="142" y="66" width="66" height="66">
<path d="M165.682 131.831H184.328L200.014 121.75L207.76 104.79L205.106 86.3331L192.896 72.2415L175.005 66.9883L157.114 72.2415L144.904 86.3331L142.25 104.79L149.996 121.75L165.682 131.831Z" fill="white"/>
</mask>
<g mask="url(#mask1_26_582)">
<path d="M175.005 79.8889V66.9883L157.114 72.2415L164.089 83.0939L175.005 79.8889Z" fill="#D1D3D4"/>
<path d="M193.371 91.6925L205.106 86.3333L192.896 72.2417L185.921 83.0942L193.371 91.6925Z" fill="#D1D3D4"/>
<path d="M185.921 83.0939L192.896 72.2415L175.005 66.9883V79.8889L185.921 83.0939Z" fill="#BCBEC0"/>
<path d="M156.639 91.6922L144.903 86.333L142.25 104.79L155.02 102.953L156.639 91.6922Z" fill="#BCBEC0"/>
<path d="M159.746 113.303L155.02 102.954L142.25 104.79L149.996 121.751L159.746 113.303Z" fill="#D1D3D4"/>
<path d="M164.089 83.0942L157.114 72.2417L144.904 86.3333L156.639 91.6925L164.089 83.0942Z" fill="#A7A9AC"/>
<path d="M180.694 119.453L184.328 131.831L200.015 121.75L190.265 113.302L180.694 119.453Z" fill="#A7A9AC"/>
<path d="M159.746 113.302L149.996 121.75L165.682 131.831L169.317 119.453L159.746 113.302Z" fill="#A7A9AC"/>
<path d="M169.317 119.453L165.682 131.831H184.328L180.694 119.453H169.317Z" fill="#BCBEC0"/>
<path d="M190.265 113.303L200.014 121.751L207.76 104.79L194.99 102.954L190.265 113.303Z" fill="#BCBEC0"/>
<path d="M194.991 102.953L207.76 104.79L205.107 86.333L193.371 91.6922L194.991 102.953Z" fill="#A7A9AC"/>
<path d="M180.693 119.453L190.265 113.303L194.99 102.954L193.371 91.6926L185.921 83.0942L175.005 79.8892L164.089 83.0942L156.639 91.6926L155.02 102.954L159.746 113.303L169.317 119.453H180.693Z" fill="#F1F2F2"/>
</g>
<mask id="mask2_26_582" style="mask-type:luminance" maskUnits="userSpaceOnUse" x="142" y="66" width="66" height="66">
<path d="M165.682 131.831H184.328L200.014 121.75L207.76 104.79L205.106 86.3331L192.896 72.2415L175.005 66.9883L157.114 72.2415L144.904 86.3331L142.25 104.79L149.996 121.75L165.682 131.831Z" fill="white"/>
</mask>
<g mask="url(#mask2_26_582)">
<path opacity="0.3" d="M207.52 74.1358L133.023 96.8472L136.203 107.279L210.7 84.5673L207.52 74.1358Z" fill="white"/>
<path opacity="0.3" d="M213.787 87.2325L139.289 109.944L142.469 120.375L216.967 97.664L213.787 87.2325Z" fill="white"/>
</g>
<path d="M120.844 211.744H125.045C125.865 211.744 126.738 211.75 127.664 211.762C128.602 211.762 129.568 211.762 130.564 211.762H138.668V226.018H134.467V221.482C133.729 222.197 132.914 222.871 132.023 223.504C131.133 224.125 130.143 224.67 129.053 225.139C127.963 225.607 126.762 225.977 125.449 226.246C124.148 226.516 122.713 226.65 121.143 226.65C119.186 226.65 117.381 226.469 115.729 226.105C114.076 225.742 112.576 225.244 111.229 224.611C109.893 223.967 108.715 223.205 107.695 222.326C106.676 221.436 105.82 220.469 105.129 219.426C104.449 218.371 103.934 217.258 103.582 216.086C103.23 214.914 103.055 213.725 103.055 212.518C103.055 211.299 103.289 210.133 103.758 209.02C104.227 207.906 104.877 206.875 105.709 205.926C106.541 204.965 107.537 204.092 108.697 203.307C109.857 202.521 111.129 201.854 112.512 201.303C113.895 200.752 115.365 200.33 116.924 200.037C118.494 199.732 120.1 199.58 121.74 199.58C123.357 199.58 124.916 199.75 126.416 200.09C127.916 200.418 129.322 200.881 130.635 201.479C131.959 202.076 133.16 202.785 134.238 203.605C135.328 204.414 136.266 205.293 137.051 206.242L133.061 208.668C132.955 208.539 132.773 208.334 132.516 208.053C132.258 207.76 131.912 207.438 131.479 207.086C131.057 206.723 130.535 206.354 129.914 205.979C129.305 205.592 128.584 205.246 127.752 204.941C126.932 204.625 125.994 204.367 124.939 204.168C123.885 203.957 122.713 203.852 121.424 203.852C119.197 203.852 117.234 204.121 115.535 204.66C113.836 205.199 112.412 205.914 111.264 206.805C110.115 207.684 109.248 208.686 108.662 209.811C108.076 210.936 107.783 212.09 107.783 213.273C107.783 213.297 107.783 213.32 107.783 213.344C107.783 214.492 108.064 215.623 108.627 216.736C109.189 217.85 110.027 218.852 111.141 219.742C112.254 220.621 113.631 221.33 115.271 221.869C116.912 222.408 118.805 222.678 120.949 222.678C121.816 222.678 122.701 222.602 123.604 222.449C124.506 222.297 125.385 222.074 126.24 221.781C127.096 221.488 127.916 221.137 128.701 220.727C129.498 220.316 130.219 219.854 130.863 219.338C131.52 218.811 132.088 218.242 132.568 217.633C133.049 217.012 133.406 216.355 133.641 215.664H120.879C120.504 215.664 120.047 215.688 119.508 215.734C118.969 215.77 118.389 215.852 117.768 215.98C117.158 216.098 116.578 216.262 116.027 216.473C115.488 216.684 115.049 216.947 114.709 217.264L111.914 214.469C112.359 214.047 112.852 213.689 113.391 213.396C113.93 213.104 114.486 212.857 115.061 212.658C115.635 212.447 116.209 212.283 116.783 212.166C117.357 212.049 117.902 211.961 118.418 211.902C118.934 211.832 119.402 211.791 119.824 211.779C120.246 211.756 120.586 211.744 120.844 211.744ZM158.11 199.492C159.751 199.492 161.344 199.656 162.891 199.984C164.45 200.301 165.915 200.752 167.286 201.338C168.657 201.924 169.911 202.633 171.048 203.465C172.184 204.285 173.163 205.199 173.983 206.207C174.815 207.203 175.46 208.281 175.917 209.441C176.374 210.59 176.602 211.785 176.602 213.027C176.602 214.27 176.374 215.471 175.917 216.631C175.46 217.779 174.815 218.857 173.983 219.865C173.163 220.861 172.184 221.775 171.048 222.607C169.911 223.428 168.657 224.131 167.286 224.717C165.915 225.303 164.45 225.754 162.891 226.07C161.344 226.398 159.751 226.562 158.11 226.562C156.469 226.562 154.87 226.398 153.311 226.07C151.764 225.754 150.305 225.303 148.934 224.717C147.563 224.131 146.303 223.428 145.155 222.607C144.018 221.775 143.04 220.861 142.219 219.865C141.399 218.857 140.76 217.779 140.303 216.631C139.846 215.471 139.618 214.27 139.618 213.027C139.618 211.785 139.846 210.59 140.303 209.441C140.76 208.281 141.399 207.203 142.219 206.207C143.04 205.199 144.018 204.285 145.155 203.465C146.303 202.633 147.563 201.924 148.934 201.338C150.305 200.752 151.764 200.301 153.311 199.984C154.87 199.656 156.469 199.492 158.11 199.492ZM144.628 213.027C144.628 214.059 144.803 215.008 145.155 215.875C145.507 216.742 145.993 217.521 146.614 218.213C147.247 218.904 147.985 219.508 148.829 220.023C149.684 220.539 150.61 220.973 151.606 221.324C152.602 221.664 153.651 221.922 154.753 222.098C155.854 222.262 156.967 222.344 158.092 222.344C159.217 222.344 160.331 222.262 161.432 222.098C162.534 221.922 163.583 221.664 164.579 221.324C165.587 220.973 166.512 220.539 167.356 220.023C168.212 219.496 168.95 218.887 169.571 218.195C170.204 217.504 170.696 216.73 171.048 215.875C171.399 215.008 171.575 214.059 171.575 213.027C171.575 211.984 171.399 211.035 171.048 210.18C170.696 209.312 170.204 208.533 169.571 207.842C168.95 207.15 168.212 206.547 167.356 206.031C166.512 205.516 165.587 205.088 164.579 204.748C163.583 204.396 162.534 204.139 161.432 203.975C160.331 203.799 159.217 203.711 158.092 203.711C156.967 203.711 155.854 203.799 154.753 203.975C153.651 204.139 152.602 204.396 151.606 204.748C150.61 205.088 149.684 205.521 148.829 206.049C147.985 206.564 147.247 207.168 146.614 207.859C145.993 208.551 145.507 209.33 145.155 210.197C144.803 211.053 144.628 211.996 144.628 213.027ZM194.128 221.939V226H177.324L175.478 221.957L185.304 200.23H190.507L180.681 221.957C182.943 221.957 185.011 221.951 186.886 221.939H194.128ZM196.397 200.09C196.783 200.043 197.27 199.996 197.856 199.949C198.442 199.891 199.098 199.838 199.824 199.791C200.551 199.744 201.342 199.709 202.197 199.686C203.065 199.65 203.973 199.633 204.922 199.633C206.246 199.633 207.635 199.674 209.088 199.756C210.553 199.838 212.024 199.984 213.5 200.195C214.977 200.395 216.43 200.676 217.86 201.039C219.301 201.391 220.66 201.848 221.938 202.41C223.227 202.961 224.41 203.623 225.488 204.396C226.567 205.17 227.486 206.078 228.248 207.121C229.01 208.152 229.561 209.266 229.901 210.461C230.252 211.656 230.428 212.887 230.428 214.152C230.428 214.469 230.416 214.791 230.393 215.119C230.322 216.385 230.088 217.551 229.69 218.617C229.291 219.684 228.77 220.645 228.125 221.5C227.492 222.344 226.754 223.088 225.91 223.732C225.078 224.377 224.176 224.916 223.203 225.35C222.231 225.783 221.211 226.105 220.145 226.316C219.078 226.539 218.006 226.65 216.928 226.65C215.522 226.65 214.139 226.463 212.779 226.088C211.42 225.725 210.16 225.168 209 224.418C207.852 223.668 206.85 222.73 205.994 221.605C205.151 220.469 204.535 219.145 204.149 217.633L208.086 216.631C208.274 217.357 208.561 218.014 208.947 218.6C209.334 219.174 209.785 219.684 210.301 220.129C210.817 220.574 211.373 220.955 211.971 221.271C212.569 221.576 213.166 221.828 213.764 222.027C214.373 222.215 214.965 222.355 215.539 222.449C216.113 222.543 216.629 222.59 217.086 222.59C218.059 222.59 218.985 222.42 219.863 222.08C220.742 221.74 221.539 221.283 222.254 220.709C222.981 220.135 223.602 219.461 224.117 218.688C224.645 217.902 225.031 217.094 225.277 216.262C225.535 215.43 225.664 214.604 225.664 213.783C225.664 213.689 225.652 213.391 225.629 212.887C225.617 212.371 225.412 211.674 225.014 210.795C224.615 209.904 224.024 209.066 223.238 208.281C222.453 207.484 221.434 206.781 220.18 206.172C218.938 205.562 217.444 205.07 215.697 204.695C213.951 204.32 211.924 204.109 209.615 204.062L199.736 226H194.656L204.57 203.992C203.82 203.992 203.053 204.01 202.268 204.045C201.483 204.08 200.727 204.127 200 204.186C199.274 204.232 198.594 204.285 197.961 204.344C197.34 204.402 196.819 204.455 196.397 204.502V200.09Z" fill="white"/>
<path d="M120.844 211.744H125.045C125.865 211.744 126.738 211.75 127.664 211.762C128.602 211.762 129.568 211.762 130.564 211.762H138.668V226.018H134.467V221.482C133.729 222.197 132.914 222.871 132.023 223.504C131.133 224.125 130.143 224.67 129.053 225.139C127.963 225.607 126.762 225.977 125.449 226.246C124.148 226.516 122.713 226.65 121.143 226.65C119.186 226.65 117.381 226.469 115.729 226.105C114.076 225.742 112.576 225.244 111.229 224.611C109.893 223.967 108.715 223.205 107.695 222.326C106.676 221.436 105.82 220.469 105.129 219.426C104.449 218.371 103.934 217.258 103.582 216.086C103.23 214.914 103.055 213.725 103.055 212.518C103.055 211.299 103.289 210.133 103.758 209.02C104.227 207.906 104.877 206.875 105.709 205.926C106.541 204.965 107.537 204.092 108.697 203.307C109.857 202.521 111.129 201.854 112.512 201.303C113.895 200.752 115.365 200.33 116.924 200.037C118.494 199.732 120.1 199.58 121.74 199.58C123.357 199.58 124.916 199.75 126.416 200.09C127.916 200.418 129.322 200.881 130.635 201.479C131.959 202.076 133.16 202.785 134.238 203.605C135.328 204.414 136.266 205.293 137.051 206.242L133.061 208.668C132.955 208.539 132.773 208.334 132.516 208.053C132.258 207.76 131.912 207.438 131.479 207.086C131.057 206.723 130.535 206.354 129.914 205.979C129.305 205.592 128.584 205.246 127.752 204.941C126.932 204.625 125.994 204.367 124.939 204.168C123.885 203.957 122.713 203.852 121.424 203.852C119.197 203.852 117.234 204.121 115.535 204.66C113.836 205.199 112.412 205.914 111.264 206.805C110.115 207.684 109.248 208.686 108.662 209.811C108.076 210.936 107.783 212.09 107.783 213.273C107.783 213.297 107.783 213.32 107.783 213.344C107.783 214.492 108.064 215.623 108.627 216.736C109.189 217.85 110.027 218.852 111.141 219.742C112.254 220.621 113.631 221.33 115.271 221.869C116.912 222.408 118.805 222.678 120.949 222.678C121.816 222.678 122.701 222.602 123.604 222.449C124.506 222.297 125.385 222.074 126.24 221.781C127.096 221.488 127.916 221.137 128.701 220.727C129.498 220.316 130.219 219.854 130.863 219.338C131.52 218.811 132.088 218.242 132.568 217.633C133.049 217.012 133.406 216.355 133.641 215.664H120.879C120.504 215.664 120.047 215.688 119.508 215.734C118.969 215.77 118.389 215.852 117.768 215.98C117.158 216.098 116.578 216.262 116.027 216.473C115.488 216.684 115.049 216.947 114.709 217.264L111.914 214.469C112.359 214.047 112.852 213.689 113.391 213.396C113.93 213.104 114.486 212.857 115.061 212.658C115.635 212.447 116.209 212.283 116.783 212.166C117.357 212.049 117.902 211.961 118.418 211.902C118.934 211.832 119.402 211.791 119.824 211.779C120.246 211.756 120.586 211.744 120.844 211.744ZM158.11 199.492C159.751 199.492 161.344 199.656 162.891 199.984C164.45 200.301 165.915 200.752 167.286 201.338C168.657 201.924 169.911 202.633 171.048 203.465C172.184 204.285 173.163 205.199 173.983 206.207C174.815 207.203 175.46 208.281 175.917 209.441C176.374 210.59 176.602 211.785 176.602 213.027C176.602 214.27 176.374 215.471 175.917 216.631C175.46 217.779 174.815 218.857 173.983 219.865C173.163 220.861 172.184 221.775 171.048 222.607C169.911 223.428 168.657 224.131 167.286 224.717C165.915 225.303 164.45 225.754 162.891 226.07C161.344 226.398 159.751 226.562 158.11 226.562C156.469 226.562 154.87 226.398 153.311 226.07C151.764 225.754 150.305 225.303 148.934 224.717C147.563 224.131 146.303 223.428 145.155 222.607C144.018 221.775 143.04 220.861 142.219 219.865C141.399 218.857 140.76 217.779 140.303 216.631C139.846 215.471 139.618 214.27 139.618 213.027C139.618 211.785 139.846 210.59 140.303 209.441C140.76 208.281 141.399 207.203 142.219 206.207C143.04 205.199 144.018 204.285 145.155 203.465C146.303 202.633 147.563 201.924 148.934 201.338C150.305 200.752 151.764 200.301 153.311 199.984C154.87 199.656 156.469 199.492 158.11 199.492ZM144.628 213.027C144.628 214.059 144.803 215.008 145.155 215.875C145.507 216.742 145.993 217.521 146.614 218.213C147.247 218.904 147.985 219.508 148.829 220.023C149.684 220.539 150.61 220.973 151.606 221.324C152.602 221.664 153.651 221.922 154.753 222.098C155.854 222.262 156.967 222.344 158.092 222.344C159.217 222.344 160.331 222.262 161.432 222.098C162.534 221.922 163.583 221.664 164.579 221.324C165.587 220.973 166.512 220.539 167.356 220.023C168.212 219.496 168.95 218.887 169.571 218.195C170.204 217.504 170.696 216.73 171.048 215.875C171.399 215.008 171.575 214.059 171.575 213.027C171.575 211.984 171.399 211.035 171.048 210.18C170.696 209.312 170.204 208.533 169.571 207.842C168.95 207.15 168.212 206.547 167.356 206.031C166.512 205.516 165.587 205.088 164.579 204.748C163.583 204.396 162.534 204.139 161.432 203.975C160.331 203.799 159.217 203.711 158.092 203.711C156.967 203.711 155.854 203.799 154.753 203.975C153.651 204.139 152.602 204.396 151.606 204.748C150.61 205.088 149.684 205.521 148.829 206.049C147.985 206.564 147.247 207.168 146.614 207.859C145.993 208.551 145.507 209.33 145.155 210.197C144.803 211.053 144.628 211.996 144.628 213.027ZM194.128 221.939V226H177.324L175.478 221.957L185.304 200.23H190.507L180.681 221.957C182.943 221.957 185.011 221.951 186.886 221.939H194.128ZM196.397 200.09C196.783 200.043 197.27 199.996 197.856 199.949C198.442 199.891 199.098 199.838 199.824 199.791C200.551 199.744 201.342 199.709 202.197 199.686C203.065 199.65 203.973 199.633 204.922 199.633C206.246 199.633 207.635 199.674 209.088 199.756C210.553 199.838 212.024 199.984 213.5 200.195C214.977 200.395 216.43 200.676 217.86 201.039C219.301 201.391 220.66 201.848 221.938 202.41C223.227 202.961 224.41 203.623 225.488 204.396C226.567 205.17 227.486 206.078 228.248 207.121C229.01 208.152 229.561 209.266 229.901 210.461C230.252 211.656 230.428 212.887 230.428 214.152C230.428 214.469 230.416 214.791 230.393 215.119C230.322 216.385 230.088 217.551 229.69 218.617C229.291 219.684 228.77 220.645 228.125 221.5C227.492 222.344 226.754 223.088 225.91 223.732C225.078 224.377 224.176 224.916 223.203 225.35C222.231 225.783 221.211 226.105 220.145 226.316C219.078 226.539 218.006 226.65 216.928 226.65C215.522 226.65 214.139 226.463 212.779 226.088C211.42 225.725 210.16 225.168 209 224.418C207.852 223.668 206.85 222.73 205.994 221.605C205.151 220.469 204.535 219.145 204.149 217.633L208.086 216.631C208.274 217.357 208.561 218.014 208.947 218.6C209.334 219.174 209.785 219.684 210.301 220.129C210.817 220.574 211.373 220.955 211.971 221.271C212.569 221.576 213.166 221.828 213.764 222.027C214.373 222.215 214.965 222.355 215.539 222.449C216.113 222.543 216.629 222.59 217.086 222.59C218.059 222.59 218.985 222.42 219.863 222.08C220.742 221.74 221.539 221.283 222.254 220.709C222.981 220.135 223.602 219.461 224.117 218.688C224.645 217.902 225.031 217.094 225.277 216.262C225.535 215.43 225.664 214.604 225.664 213.783C225.664 213.689 225.652 213.391 225.629 212.887C225.617 212.371 225.412 211.674 225.014 210.795C224.615 209.904 224.024 209.066 223.238 208.281C222.453 207.484 221.434 206.781 220.18 206.172C218.938 205.562 217.444 205.07 215.697 204.695C213.951 204.32 211.924 204.109 209.615 204.062L199.736 226H194.656L204.57 203.992C203.82 203.992 203.053 204.01 202.268 204.045C201.483 204.08 200.727 204.127 200 204.186C199.274 204.232 198.594 204.285 197.961 204.344C197.34 204.402 196.819 204.455 196.397 204.502V200.09Z" fill="url(#paint3_linear_26_582)" fill-opacity="0.4"/>
<path d="M120.844 211.744H125.045C125.865 211.744 126.738 211.75 127.664 211.762C128.602 211.762 129.568 211.762 130.564 211.762H138.668V226.018H134.467V221.482C133.729 222.197 132.914 222.871 132.023 223.504C131.133 224.125 130.143 224.67 129.053 225.139C127.963 225.607 126.762 225.977 125.449 226.246C124.148 226.516 122.713 226.65 121.143 226.65C119.186 226.65 117.381 226.469 115.729 226.105C114.076 225.742 112.576 225.244 111.229 224.611C109.893 223.967 108.715 223.205 107.695 222.326C106.676 221.436 105.82 220.469 105.129 219.426C104.449 218.371 103.934 217.258 103.582 216.086C103.23 214.914 103.055 213.725 103.055 212.518C103.055 211.299 103.289 210.133 103.758 209.02C104.227 207.906 104.877 206.875 105.709 205.926C106.541 204.965 107.537 204.092 108.697 203.307C109.857 202.521 111.129 201.854 112.512 201.303C113.895 200.752 115.365 200.33 116.924 200.037C118.494 199.732 120.1 199.58 121.74 199.58C123.357 199.58 124.916 199.75 126.416 200.09C127.916 200.418 129.322 200.881 130.635 201.479C131.959 202.076 133.16 202.785 134.238 203.605C135.328 204.414 136.266 205.293 137.051 206.242L133.061 208.668C132.955 208.539 132.773 208.334 132.516 208.053C132.258 207.76 131.912 207.438 131.479 207.086C131.057 206.723 130.535 206.354 129.914 205.979C129.305 205.592 128.584 205.246 127.752 204.941C126.932 204.625 125.994 204.367 124.939 204.168C123.885 203.957 122.713 203.852 121.424 203.852C119.197 203.852 117.234 204.121 115.535 204.66C113.836 205.199 112.412 205.914 111.264 206.805C110.115 207.684 109.248 208.686 108.662 209.811C108.076 210.936 107.783 212.09 107.783 213.273C107.783 213.297 107.783 213.32 107.783 213.344C107.783 214.492 108.064 215.623 108.627 216.736C109.189 217.85 110.027 218.852 111.141 219.742C112.254 220.621 113.631 221.33 115.271 221.869C116.912 222.408 118.805 222.678 120.949 222.678C121.816 222.678 122.701 222.602 123.604 222.449C124.506 222.297 125.385 222.074 126.24 221.781C127.096 221.488 127.916 221.137 128.701 220.727C129.498 220.316 130.219 219.854 130.863 219.338C131.52 218.811 132.088 218.242 132.568 217.633C133.049 217.012 133.406 216.355 133.641 215.664H120.879C120.504 215.664 120.047 215.688 119.508 215.734C118.969 215.77 118.389 215.852 117.768 215.98C117.158 216.098 116.578 216.262 116.027 216.473C115.488 216.684 115.049 216.947 114.709 217.264L111.914 214.469C112.359 214.047 112.852 213.689 113.391 213.396C113.93 213.104 114.486 212.857 115.061 212.658C115.635 212.447 116.209 212.283 116.783 212.166C117.357 212.049 117.902 211.961 118.418 211.902C118.934 211.832 119.402 211.791 119.824 211.779C120.246 211.756 120.586 211.744 120.844 211.744ZM158.11 199.492C159.751 199.492 161.344 199.656 162.891 199.984C164.45 200.301 165.915 200.752 167.286 201.338C168.657 201.924 169.911 202.633 171.048 203.465C172.184 204.285 173.163 205.199 173.983 206.207C174.815 207.203 175.46 208.281 175.917 209.441C176.374 210.59 176.602 211.785 176.602 213.027C176.602 214.27 176.374 215.471 175.917 216.631C175.46 217.779 174.815 218.857 173.983 219.865C173.163 220.861 172.184 221.775 171.048 222.607C169.911 223.428 168.657 224.131 167.286 224.717C165.915 225.303 164.45 225.754 162.891 226.07C161.344 226.398 159.751 226.562 158.11 226.562C156.469 226.562 154.87 226.398 153.311 226.07C151.764 225.754 150.305 225.303 148.934 224.717C147.563 224.131 146.303 223.428 145.155 222.607C144.018 221.775 143.04 220.861 142.219 219.865C141.399 218.857 140.76 217.779 140.303 216.631C139.846 215.471 139.618 214.27 139.618 213.027C139.618 211.785 139.846 210.59 140.303 209.441C140.76 208.281 141.399 207.203 142.219 206.207C143.04 205.199 144.018 204.285 145.155 203.465C146.303 202.633 147.563 201.924 148.934 201.338C150.305 200.752 151.764 200.301 153.311 199.984C154.87 199.656 156.469 199.492 158.11 199.492ZM144.628 213.027C144.628 214.059 144.803 215.008 145.155 215.875C145.507 216.742 145.993 217.521 146.614 218.213C147.247 218.904 147.985 219.508 148.829 220.023C149.684 220.539 150.61 220.973 151.606 221.324C152.602 221.664 153.651 221.922 154.753 222.098C155.854 222.262 156.967 222.344 158.092 222.344C159.217 222.344 160.331 222.262 161.432 222.098C162.534 221.922 163.583 221.664 164.579 221.324C165.587 220.973 166.512 220.539 167.356 220.023C168.212 219.496 168.95 218.887 169.571 218.195C170.204 217.504 170.696 216.73 171.048 215.875C171.399 215.008 171.575 214.059 171.575 213.027C171.575 211.984 171.399 211.035 171.048 210.18C170.696 209.312 170.204 208.533 169.571 207.842C168.95 207.15 168.212 206.547 167.356 206.031C166.512 205.516 165.587 205.088 164.579 204.748C163.583 204.396 162.534 204.139 161.432 203.975C160.331 203.799 159.217 203.711 158.092 203.711C156.967 203.711 155.854 203.799 154.753 203.975C153.651 204.139 152.602 204.396 151.606 204.748C150.61 205.088 149.684 205.521 148.829 206.049C147.985 206.564 147.247 207.168 146.614 207.859C145.993 208.551 145.507 209.33 145.155 210.197C144.803 211.053 144.628 211.996 144.628 213.027ZM194.128 221.939V226H177.324L175.478 221.957L185.304 200.23H190.507L180.681 221.957C182.943 221.957 185.011 221.951 186.886 221.939H194.128ZM196.397 200.09C196.783 200.043 197.27 199.996 197.856 199.949C198.442 199.891 199.098 199.838 199.824 199.791C200.551 199.744 201.342 199.709 202.197 199.686C203.065 199.65 203.973 199.633 204.922 199.633C206.246 199.633 207.635 199.674 209.088 199.756C210.553 199.838 212.024 199.984 213.5 200.195C214.977 200.395 216.43 200.676 217.86 201.039C219.301 201.391 220.66 201.848 221.938 202.41C223.227 202.961 224.41 203.623 225.488 204.396C226.567 205.17 227.486 206.078 228.248 207.121C229.01 208.152 229.561 209.266 229.901 210.461C230.252 211.656 230.428 212.887 230.428 214.152C230.428 214.469 230.416 214.791 230.393 215.119C230.322 216.385 230.088 217.551 229.69 218.617C229.291 219.684 228.77 220.645 228.125 221.5C227.492 222.344 226.754 223.088 225.91 223.732C225.078 224.377 224.176 224.916 223.203 225.35C222.231 225.783 221.211 226.105 220.145 226.316C219.078 226.539 218.006 226.65 216.928 226.65C215.522 226.65 214.139 226.463 212.779 226.088C211.42 225.725 210.16 225.168 209 224.418C207.852 223.668 206.85 222.73 205.994 221.605C205.151 220.469 204.535 219.145 204.149 217.633L208.086 216.631C208.274 217.357 208.561 218.014 208.947 218.6C209.334 219.174 209.785 219.684 210.301 220.129C210.817 220.574 211.373 220.955 211.971 221.271C212.569 221.576 213.166 221.828 213.764 222.027C214.373 222.215 214.965 222.355 215.539 222.449C216.113 222.543 216.629 222.59 217.086 222.59C218.059 222.59 218.985 222.42 219.863 222.08C220.742 221.74 221.539 221.283 222.254 220.709C222.981 220.135 223.602 219.461 224.117 218.688C224.645 217.902 225.031 217.094 225.277 216.262C225.535 215.43 225.664 214.604 225.664 213.783C225.664 213.689 225.652 213.391 225.629 212.887C225.617 212.371 225.412 211.674 225.014 210.795C224.615 209.904 224.024 209.066 223.238 208.281C222.453 207.484 221.434 206.781 220.18 206.172C218.938 205.562 217.444 205.07 215.697 204.695C213.951 204.32 211.924 204.109 209.615 204.062L199.736 226H194.656L204.57 203.992C203.82 203.992 203.053 204.01 202.268 204.045C201.483 204.08 200.727 204.127 200 204.186C199.274 204.232 198.594 204.285 197.961 204.344C197.34 204.402 196.819 204.455 196.397 204.502V200.09Z" fill="#FFEDA4" style="mix-blend-mode:color"/>
<path d="M123.156 273.234C122.086 273.234 121.125 273.031 120.273 272.625C119.43 272.211 118.754 271.645 118.246 270.926C117.738 270.199 117.469 269.375 117.438 268.453H119.992C120.055 269.195 120.387 269.809 120.988 270.293C121.59 270.777 122.312 271.02 123.156 271.02C123.828 271.02 124.422 270.863 124.938 270.551C125.453 270.238 125.859 269.812 126.156 269.273C126.453 268.727 126.602 268.102 126.602 267.398C126.602 266.695 126.449 266.066 126.145 265.512C125.84 264.949 125.418 264.508 124.879 264.188C124.348 263.867 123.734 263.707 123.039 263.707C122.508 263.707 121.977 263.801 121.445 263.988C120.914 264.168 120.484 264.402 120.156 264.691L117.73 264.34L118.715 255.539H128.312V257.801H120.918L120.367 262.688H120.461C120.797 262.352 121.246 262.078 121.809 261.867C122.379 261.648 122.992 261.539 123.648 261.539C124.711 261.539 125.656 261.793 126.484 262.301C127.32 262.801 127.977 263.488 128.453 264.363C128.93 265.23 129.168 266.227 129.168 267.352C129.168 268.484 128.91 269.496 128.395 270.387C127.879 271.27 127.168 271.965 126.262 272.473C125.363 272.98 124.328 273.234 123.156 273.234ZM138.941 264.527V266.73H131.184V264.527H138.941ZM147.578 255.539V273H144.977V258.188H144.859L140.711 260.918V258.387L145.047 255.539H147.578ZM150.156 273V271.102L156.062 264.961C156.688 264.305 157.203 263.727 157.609 263.227C158.023 262.719 158.332 262.238 158.535 261.785C158.746 261.332 158.852 260.852 158.852 260.344C158.852 259.758 158.715 259.254 158.441 258.832C158.168 258.41 157.797 258.086 157.328 257.859C156.859 257.633 156.328 257.52 155.734 257.52C155.109 257.52 154.566 257.648 154.105 257.906C153.645 258.156 153.285 258.516 153.027 258.984C152.777 259.445 152.652 259.988 152.652 260.613H150.145C150.145 259.551 150.387 258.621 150.871 257.824C151.363 257.027 152.035 256.41 152.887 255.973C153.746 255.527 154.715 255.305 155.793 255.305C156.895 255.305 157.863 255.523 158.699 255.961C159.535 256.398 160.188 256.992 160.656 257.742C161.125 258.484 161.359 259.324 161.359 260.262C161.359 260.91 161.238 261.543 160.996 262.16C160.762 262.777 160.344 263.469 159.742 264.234C159.148 264.992 158.32 265.906 157.258 266.977L153.789 270.609V270.75H161.641V273H150.156ZM174.754 273.27C173.496 273.27 172.41 272.98 171.496 272.402C170.582 271.824 169.879 271.027 169.387 270.012C168.895 268.996 168.648 267.832 168.648 266.52C168.648 265.184 168.898 264.008 169.398 262.992C169.906 261.969 170.613 261.172 171.52 260.602C172.434 260.023 173.504 259.734 174.73 259.734C175.73 259.734 176.617 259.918 177.391 260.285C178.172 260.645 178.801 261.156 179.277 261.82C179.762 262.484 180.047 263.258 180.133 264.141H177.648C177.562 263.727 177.395 263.348 177.145 263.004C176.902 262.66 176.582 262.387 176.184 262.184C175.785 261.98 175.312 261.879 174.766 261.879C174.055 261.879 173.434 262.066 172.902 262.441C172.379 262.809 171.969 263.336 171.672 264.023C171.375 264.711 171.227 265.523 171.227 266.461C171.227 267.406 171.371 268.23 171.66 268.934C171.949 269.637 172.359 270.18 172.891 270.562C173.43 270.938 174.055 271.125 174.766 271.125C175.5 271.125 176.125 270.922 176.641 270.516C177.164 270.109 177.5 269.555 177.648 268.852H180.133C180.047 269.703 179.773 270.461 179.312 271.125C178.852 271.789 178.234 272.312 177.461 272.695C176.688 273.078 175.785 273.27 174.754 273.27ZM185.734 273.281C184.906 273.281 184.156 273.129 183.484 272.824C182.812 272.512 182.281 272.059 181.891 271.465C181.5 270.871 181.305 270.148 181.305 269.297C181.305 268.555 181.445 267.949 181.727 267.48C182.016 267.004 182.402 266.625 182.887 266.344C183.371 266.062 183.91 265.852 184.504 265.711C185.098 265.57 185.707 265.461 186.332 265.383C187.121 265.297 187.758 265.223 188.242 265.16C188.727 265.098 189.078 265 189.297 264.867C189.523 264.727 189.637 264.504 189.637 264.199V264.141C189.637 263.398 189.426 262.824 189.004 262.418C188.59 262.012 187.973 261.809 187.152 261.809C186.301 261.809 185.625 261.996 185.125 262.371C184.633 262.738 184.293 263.156 184.105 263.625L181.703 263.074C181.992 262.277 182.41 261.637 182.957 261.152C183.512 260.66 184.145 260.301 184.855 260.074C185.574 259.848 186.324 259.734 187.105 259.734C187.629 259.734 188.184 259.797 188.77 259.922C189.355 260.039 189.906 260.262 190.422 260.59C190.945 260.91 191.371 261.371 191.699 261.973C192.027 262.574 192.191 263.352 192.191 264.305V273H189.695V271.207H189.602C189.445 271.527 189.199 271.848 188.863 272.168C188.535 272.488 188.113 272.754 187.598 272.965C187.082 273.176 186.461 273.281 185.734 273.281ZM186.285 271.242C186.996 271.242 187.602 271.105 188.102 270.832C188.602 270.551 188.984 270.184 189.25 269.73C189.516 269.277 189.648 268.797 189.648 268.289V266.59C189.555 266.676 189.379 266.758 189.121 266.836C188.863 266.914 188.57 266.98 188.242 267.035C187.914 267.09 187.594 267.141 187.281 267.188C186.969 267.227 186.707 267.258 186.496 267.281C186.004 267.352 185.555 267.461 185.148 267.609C184.742 267.75 184.414 267.961 184.164 268.242C183.922 268.516 183.801 268.879 183.801 269.332C183.801 269.965 184.035 270.441 184.504 270.762C184.973 271.082 185.566 271.242 186.285 271.242ZM194.641 273V259.898H197.09V261.996H197.23C197.473 261.293 197.895 260.738 198.496 260.332C199.105 259.918 199.793 259.711 200.559 259.711C200.715 259.711 200.898 259.719 201.109 259.734C201.328 259.742 201.504 259.754 201.637 259.77V262.207C201.535 262.176 201.352 262.145 201.086 262.113C200.828 262.082 200.566 262.066 200.301 262.066C199.699 262.066 199.16 262.195 198.684 262.453C198.215 262.703 197.844 263.051 197.57 263.496C197.305 263.934 197.172 264.441 197.172 265.02V273H194.641ZM206.547 273.281C205.719 273.281 204.969 273.129 204.297 272.824C203.625 272.512 203.094 272.059 202.703 271.465C202.312 270.871 202.117 270.148 202.117 269.297C202.117 268.555 202.258 267.949 202.539 267.48C202.828 267.004 203.215 266.625 203.699 266.344C204.184 266.062 204.723 265.852 205.316 265.711C205.91 265.57 206.52 265.461 207.145 265.383C207.934 265.297 208.57 265.223 209.055 265.16C209.539 265.098 209.891 265 210.109 264.867C210.336 264.727 210.449 264.504 210.449 264.199V264.141C210.449 263.398 210.238 262.824 209.816 262.418C209.402 262.012 208.785 261.809 207.965 261.809C207.113 261.809 206.438 261.996 205.938 262.371C205.445 262.738 205.105 263.156 204.918 263.625L202.516 263.074C202.805 262.277 203.223 261.637 203.77 261.152C204.324 260.66 204.957 260.301 205.668 260.074C206.387 259.848 207.137 259.734 207.918 259.734C208.441 259.734 208.996 259.797 209.582 259.922C210.168 260.039 210.719 260.262 211.234 260.59C211.758 260.91 212.184 261.371 212.512 261.973C212.84 262.574 213.004 263.352 213.004 264.305V273H210.508V271.207H210.414C210.258 271.527 210.012 271.848 209.676 272.168C209.348 272.488 208.926 272.754 208.41 272.965C207.895 273.176 207.273 273.281 206.547 273.281ZM207.098 271.242C207.809 271.242 208.414 271.105 208.914 270.832C209.414 270.551 209.797 270.184 210.062 269.73C210.328 269.277 210.461 268.797 210.461 268.289V266.59C210.367 266.676 210.191 266.758 209.934 266.836C209.676 266.914 209.383 266.98 209.055 267.035C208.727 267.09 208.406 267.141 208.094 267.188C207.781 267.227 207.52 267.258 207.309 267.281C206.816 267.352 206.367 267.461 205.961 267.609C205.555 267.75 205.227 267.961 204.977 268.242C204.734 268.516 204.613 268.879 204.613 269.332C204.613 269.965 204.848 270.441 205.316 270.762C205.785 271.082 206.379 271.242 207.098 271.242ZM221.547 259.898V261.949H214.398V259.898H221.547ZM216.309 256.781H218.852V269.156C218.852 269.758 218.977 270.199 219.227 270.48C219.477 270.754 219.879 270.891 220.434 270.891C220.566 270.891 220.707 270.883 220.855 270.867C221.012 270.852 221.168 270.828 221.324 270.797L221.805 272.906C221.547 272.992 221.266 273.059 220.961 273.105C220.656 273.152 220.352 273.176 220.047 273.176C218.914 273.176 218.008 272.859 217.328 272.227C216.648 271.586 216.309 270.734 216.309 269.672V256.781ZM232.961 263.109L230.652 263.508C230.504 263.07 230.227 262.668 229.82 262.301C229.422 261.934 228.824 261.75 228.027 261.75C227.309 261.75 226.707 261.914 226.223 262.242C225.746 262.562 225.508 262.973 225.508 263.473C225.508 263.91 225.668 264.266 225.988 264.539C226.316 264.812 226.836 265.031 227.547 265.195L229.645 265.664C230.84 265.938 231.734 266.367 232.328 266.953C232.922 267.539 233.219 268.289 233.219 269.203C233.219 269.992 232.992 270.695 232.539 271.312C232.086 271.922 231.457 272.402 230.652 272.754C229.848 273.098 228.918 273.27 227.863 273.27C226.395 273.27 225.199 272.953 224.277 272.32C223.355 271.688 222.789 270.797 222.578 269.648L225.027 269.273C225.184 269.914 225.5 270.398 225.977 270.727C226.461 271.055 227.086 271.219 227.852 271.219C228.68 271.219 229.344 271.043 229.844 270.691C230.352 270.34 230.605 269.914 230.605 269.414C230.605 268.586 229.988 268.027 228.754 267.738L226.539 267.246C225.312 266.965 224.406 266.523 223.82 265.922C223.242 265.312 222.953 264.547 222.953 263.625C222.953 262.852 223.168 262.172 223.598 261.586C224.035 261 224.633 260.547 225.391 260.227C226.156 259.898 227.027 259.734 228.004 259.734C229.426 259.734 230.539 260.043 231.344 260.66C232.156 261.277 232.695 262.094 232.961 263.109Z" fill="#535353"/>
<path d="M152.338 312.762C154.135 312.781 155.922 313.123 157.7 313.787C159.496 314.451 161.137 315.555 162.621 317.098C164.106 318.641 165.287 320.74 166.166 323.396C167.065 326.053 167.514 329.383 167.514 333.387C167.514 337.273 167.153 340.721 166.43 343.729C165.707 346.717 164.653 349.246 163.266 351.316C161.899 353.367 160.239 354.93 158.286 356.004C156.332 357.059 154.135 357.586 151.694 357.586C149.252 357.586 147.065 357.098 145.131 356.121C143.217 355.145 141.655 353.787 140.444 352.049C139.233 350.311 138.452 348.289 138.1 345.984H143.315C143.784 347.996 144.721 349.656 146.127 350.965C147.534 352.254 149.389 352.898 151.694 352.898C155.053 352.898 157.7 351.434 159.633 348.504C161.586 345.555 162.573 341.395 162.592 336.023H162.241C161.44 337.215 160.493 338.25 159.399 339.129C158.305 339.988 157.094 340.652 155.766 341.121C154.438 341.59 153.022 341.824 151.518 341.824C149.018 341.824 146.723 341.209 144.633 339.979C142.543 338.729 140.873 337.02 139.623 334.852C138.393 332.664 137.768 330.164 137.748 327.352C137.768 324.676 138.373 322.234 139.565 320.027C140.776 317.801 142.465 316.023 144.633 314.695C146.821 313.367 149.389 312.723 152.338 312.762ZM152.338 317.449C150.561 317.449 148.95 317.898 147.504 318.797C146.079 319.676 144.955 320.867 144.135 322.371C143.315 323.855 142.905 325.516 142.905 327.352C142.905 329.168 143.295 330.818 144.077 332.303C144.877 333.787 145.981 334.969 147.387 335.848C148.793 336.707 150.385 337.137 152.162 337.137C153.959 337.137 155.58 336.678 157.026 335.76C158.491 334.822 159.653 333.602 160.512 332.098C161.391 330.594 161.83 328.973 161.83 327.234C161.83 325.535 161.42 323.943 160.6 322.459C159.78 320.955 158.657 319.744 157.231 318.826C155.805 317.908 154.174 317.449 152.338 317.449ZM193.853 348.797V346.512C193.853 344.91 194.175 343.445 194.82 342.117C195.484 340.789 196.451 339.725 197.72 338.924C198.99 338.123 200.533 337.723 202.349 337.723C204.205 337.723 205.757 338.123 207.007 338.924C208.257 339.725 209.195 340.789 209.82 342.117C210.464 343.445 210.787 344.91 210.787 346.512V348.797C210.787 350.398 210.464 351.863 209.82 353.191C209.175 354.52 208.228 355.584 206.978 356.385C205.728 357.186 204.185 357.586 202.349 357.586C200.513 357.586 198.961 357.186 197.691 356.385C196.421 355.584 195.464 354.52 194.82 353.191C194.175 351.863 193.853 350.398 193.853 348.797ZM198.189 346.512V348.797C198.189 350.125 198.502 351.316 199.127 352.371C199.752 353.406 200.826 353.934 202.349 353.953C203.853 353.934 204.908 353.406 205.513 352.371C206.138 351.316 206.451 350.125 206.451 348.797V346.512C206.451 345.184 206.148 344.002 205.543 342.967C204.957 341.932 203.892 341.414 202.349 341.414C200.865 341.414 199.8 341.932 199.156 342.967C198.511 344.002 198.189 345.184 198.189 346.512ZM172.115 323.836V321.551C172.115 319.949 172.447 318.484 173.111 317.156C173.775 315.828 174.732 314.764 175.982 313.963C177.252 313.162 178.795 312.762 180.611 312.762C182.466 312.762 184.019 313.162 185.269 313.963C186.539 314.764 187.486 315.828 188.111 317.156C188.755 318.484 189.068 319.949 189.048 321.551V323.836C189.068 325.418 188.746 326.883 188.082 328.23C187.437 329.559 186.49 330.623 185.24 331.424C183.99 332.225 182.447 332.625 180.611 332.625C178.775 332.625 177.222 332.225 175.953 331.424C174.683 330.623 173.726 329.559 173.082 328.23C172.437 326.883 172.115 325.418 172.115 323.836ZM176.451 321.551V323.836C176.451 325.164 176.763 326.355 177.388 327.41C178.013 328.445 179.087 328.953 180.611 328.934C182.115 328.953 183.17 328.445 183.775 327.41C184.4 326.355 184.712 325.164 184.712 323.836V321.551C184.712 320.223 184.41 319.041 183.804 318.006C183.218 316.951 182.154 316.434 180.611 316.453C179.127 316.434 178.062 316.951 177.418 318.006C176.773 319.041 176.451 320.223 176.451 321.551ZM173.755 357L203.755 313.348H208.619L178.619 357H173.755Z" fill="#0867FF"/>
<path d="M120.505 404H118.171L123.406 389.449H125.945L131.17 404H128.845L124.724 392.096H124.607L120.505 404ZM120.896 398.307H128.445V400.143H120.896V398.307ZM133.963 397.525V404H131.854V393.082H133.904V394.879H134.051C134.298 394.286 134.686 393.818 135.213 393.473C135.74 393.121 136.417 392.945 137.244 392.945C137.986 392.945 138.634 393.102 139.188 393.414C139.747 393.72 140.18 394.179 140.486 394.791C140.799 395.403 140.955 396.161 140.955 397.066V404H138.846V397.32C138.846 396.533 138.637 395.914 138.221 395.465C137.804 395.009 137.238 394.781 136.521 394.781C136.033 394.781 135.594 394.892 135.203 395.113C134.819 395.328 134.516 395.637 134.295 396.041C134.074 396.445 133.963 396.939 133.963 397.525ZM144.696 397.525V404H142.586V393.082H144.637V394.879H144.784C145.031 394.286 145.418 393.818 145.946 393.473C146.473 393.121 147.15 392.945 147.977 392.945C148.719 392.945 149.367 393.102 149.92 393.414C150.48 393.72 150.913 394.179 151.219 394.791C151.532 395.403 151.688 396.161 151.688 397.066V404H149.579V397.32C149.579 396.533 149.37 395.914 148.954 395.465C148.537 395.009 147.97 394.781 147.254 394.781C146.766 394.781 146.327 394.892 145.936 395.113C145.552 395.328 145.249 395.637 145.028 396.041C144.806 396.445 144.696 396.939 144.696 397.525ZM160.233 399.488V393.082H162.343V404H160.272V402.105H160.155C159.895 402.685 159.491 403.17 158.944 403.561C158.397 403.951 157.714 404.143 156.893 404.137C156.19 404.137 155.568 403.984 155.028 403.678C154.494 403.372 154.074 402.913 153.768 402.301C153.469 401.689 153.319 400.93 153.319 400.025V393.082H155.429V399.781C155.429 400.517 155.637 401.106 156.054 401.549C156.47 401.992 157.007 402.21 157.665 402.203C158.062 402.203 158.456 402.105 158.846 401.91C159.244 401.715 159.572 401.415 159.833 401.012C160.1 400.608 160.233 400.1 160.233 399.488ZM167.138 404.234C166.448 404.234 165.823 404.107 165.263 403.854C164.703 403.593 164.26 403.215 163.935 402.721C163.609 402.226 163.446 401.624 163.446 400.914C163.446 400.296 163.564 399.791 163.798 399.4C164.039 399.003 164.361 398.688 164.765 398.453C165.168 398.219 165.618 398.043 166.113 397.926C166.607 397.809 167.115 397.717 167.636 397.652C168.293 397.581 168.824 397.519 169.228 397.467C169.631 397.415 169.924 397.333 170.107 397.223C170.295 397.105 170.39 396.92 170.39 396.666V396.617C170.39 395.999 170.214 395.52 169.863 395.182C169.517 394.843 169.003 394.674 168.32 394.674C167.61 394.674 167.047 394.83 166.63 395.143C166.22 395.449 165.937 395.797 165.78 396.188L163.779 395.729C164.019 395.064 164.368 394.531 164.823 394.127C165.286 393.717 165.813 393.417 166.405 393.229C167.004 393.04 167.629 392.945 168.28 392.945C168.717 392.945 169.179 392.997 169.667 393.102C170.155 393.199 170.614 393.385 171.044 393.658C171.48 393.925 171.835 394.309 172.109 394.811C172.382 395.312 172.519 395.96 172.519 396.754V404H170.439V402.506H170.361C170.23 402.773 170.025 403.04 169.745 403.307C169.472 403.574 169.12 403.795 168.691 403.971C168.261 404.146 167.743 404.234 167.138 404.234ZM167.597 402.535C168.189 402.535 168.694 402.421 169.111 402.193C169.527 401.959 169.846 401.653 170.068 401.275C170.289 400.898 170.4 400.497 170.4 400.074V398.658C170.321 398.73 170.175 398.798 169.96 398.863C169.745 398.928 169.501 398.984 169.228 399.029C168.954 399.075 168.687 399.117 168.427 399.156C168.167 399.189 167.948 399.215 167.773 399.234C167.363 399.293 166.988 399.384 166.65 399.508C166.311 399.625 166.038 399.801 165.829 400.035C165.627 400.263 165.527 400.566 165.527 400.943C165.527 401.471 165.722 401.868 166.113 402.135C166.503 402.402 166.998 402.535 167.597 402.535ZM176.269 389.449V404H174.16V389.449H176.269ZM181.954 404V393.082H183.995V394.83H184.112C184.314 394.244 184.665 393.782 185.166 393.443C185.674 393.098 186.247 392.926 186.885 392.926C187.015 392.926 187.168 392.932 187.344 392.945C187.526 392.952 187.673 392.962 187.784 392.975V395.006C187.699 394.98 187.546 394.954 187.325 394.928C187.11 394.902 186.892 394.889 186.67 394.889C186.169 394.889 185.72 394.996 185.323 395.211C184.932 395.419 184.623 395.709 184.395 396.08C184.174 396.445 184.063 396.868 184.063 397.35V404H181.954ZM192.716 404.225C191.648 404.225 190.723 403.993 189.942 403.531C189.161 403.069 188.559 402.418 188.136 401.578C187.719 400.732 187.511 399.745 187.511 398.619C187.511 397.499 187.716 396.513 188.126 395.66C188.542 394.807 189.125 394.143 189.874 393.668C190.629 393.186 191.514 392.945 192.53 392.945C193.149 392.945 193.748 393.046 194.327 393.248C194.906 393.45 195.427 393.769 195.889 394.205C196.352 394.641 196.716 395.208 196.983 395.904C197.257 396.601 197.393 397.441 197.393 398.424V399.186H188.712V397.594H196.3L195.313 398.121C195.313 397.451 195.209 396.858 195.001 396.344C194.792 395.829 194.48 395.429 194.063 395.143C193.653 394.85 193.142 394.703 192.53 394.703C191.918 394.703 191.394 394.85 190.958 395.143C190.528 395.436 190.199 395.823 189.971 396.305C189.744 396.786 189.63 397.314 189.63 397.887V398.971C189.63 399.719 189.76 400.354 190.02 400.875C190.281 401.396 190.642 401.793 191.104 402.066C191.573 402.34 192.117 402.477 192.735 402.477C193.139 402.477 193.503 402.418 193.829 402.301C194.161 402.184 194.447 402.008 194.688 401.773C194.929 401.539 195.111 401.249 195.235 400.904L197.247 401.285C197.084 401.871 196.798 402.385 196.388 402.828C195.977 403.271 195.46 403.616 194.835 403.863C194.216 404.104 193.51 404.225 192.716 404.225ZM203.556 393.082V394.791H197.599V393.082H203.556ZM199.191 390.484H201.31V400.797C201.31 401.298 201.414 401.666 201.622 401.9C201.831 402.128 202.166 402.242 202.628 402.242C202.739 402.242 202.856 402.236 202.98 402.223C203.11 402.21 203.24 402.19 203.37 402.164L203.771 403.922C203.556 403.993 203.321 404.049 203.068 404.088C202.814 404.127 202.56 404.146 202.306 404.146C201.362 404.146 200.607 403.883 200.04 403.355C199.474 402.822 199.191 402.112 199.191 401.227V390.484ZM211.593 399.488V393.082H213.703V404H211.632V402.105H211.515C211.255 402.685 210.851 403.17 210.304 403.561C209.757 403.951 209.074 404.143 208.254 404.137C207.55 404.137 206.929 403.984 206.388 403.678C205.854 403.372 205.435 402.913 205.129 402.301C204.829 401.689 204.679 400.93 204.679 400.025V393.082H206.789V399.781C206.789 400.517 206.997 401.106 207.414 401.549C207.83 401.992 208.367 402.21 209.025 402.203C209.422 402.203 209.816 402.105 210.207 401.91C210.604 401.715 210.933 401.415 211.193 401.012C211.46 400.608 211.593 400.1 211.593 399.488ZM215.334 404V393.082H217.375V394.83H217.492C217.694 394.244 218.046 393.782 218.547 393.443C219.055 393.098 219.628 392.926 220.266 392.926C220.396 392.926 220.549 392.932 220.725 392.945C220.907 392.952 221.053 392.962 221.164 392.975V395.006C221.079 394.98 220.926 394.954 220.705 394.928C220.49 394.902 220.272 394.889 220.051 394.889C219.549 394.889 219.1 394.996 218.703 395.211C218.312 395.419 218.003 395.709 217.775 396.08C217.554 396.445 217.443 396.868 217.443 397.35V404H215.334ZM223.899 397.525V404H221.789V393.082H223.84V394.879H223.987C224.234 394.286 224.621 393.818 225.149 393.473C225.676 393.121 226.353 392.945 227.18 392.945C227.922 392.945 228.57 393.102 229.123 393.414C229.683 393.72 230.116 394.179 230.422 394.791C230.735 395.403 230.891 396.161 230.891 397.066V404H228.782V397.32C228.782 396.533 228.573 395.914 228.157 395.465C227.74 395.009 227.174 394.781 226.457 394.781C225.969 394.781 225.53 394.892 225.139 395.113C224.755 395.328 224.452 395.637 224.231 396.041C224.01 396.445 223.899 396.939 223.899 397.525Z" fill="#535353"/>
<rect x="105.5" y="30.5" width="44" height="44" rx="22" fill="#1A1A1A" stroke="#505050"/>
<path d="M123.449 60V58.7305L128.254 53.457C128.814 52.8451 129.273 52.3112 129.631 51.8555C129.995 51.3997 130.266 50.9701 130.441 50.5664C130.624 50.1628 130.715 49.7396 130.715 49.2969C130.715 48.7826 130.591 48.3398 130.344 47.9688C130.103 47.5911 129.774 47.3014 129.357 47.0996C128.941 46.8978 128.469 46.7969 127.941 46.7969C127.382 46.7969 126.893 46.9108 126.477 47.1387C126.066 47.3665 125.747 47.6888 125.52 48.1055C125.298 48.5156 125.188 48.9974 125.188 49.5508H123.508C123.508 48.6979 123.703 47.9492 124.094 47.3047C124.491 46.6602 125.028 46.1589 125.705 45.8008C126.389 45.4362 127.154 45.2539 128 45.2539C128.853 45.2539 129.608 45.4362 130.266 45.8008C130.923 46.1589 131.438 46.6439 131.809 47.2559C132.186 47.8613 132.375 48.5417 132.375 49.2969C132.375 49.8307 132.277 50.3516 132.082 50.8594C131.893 51.3607 131.561 51.9238 131.086 52.5488C130.617 53.1738 129.966 53.9323 129.133 54.8242L125.871 58.3203V58.4375H132.629V60H123.449Z" fill="white"/>
<g clip-path="url(#clip0_26_582)">
<g opacity="0.1">
<path d="M176 335.5C243.858 335.5 305.267 351.602 349.695 377.608C394.135 403.622 421.5 439.486 421.5 479C421.5 518.514 394.135 554.378 349.695 580.392C305.267 606.398 243.858 622.5 176 622.5C108.142 622.5 46.7327 606.398 2.30469 580.392C-42.1353 554.378 -69.5 518.514 -69.5 479C-69.5 439.486 -42.1353 403.622 2.30469 377.608C46.7327 351.602 108.142 335.5 176 335.5Z" stroke="#D9D9D9"/>
<path d="M176 335.5C243.858 335.5 305.267 351.602 349.695 377.608C394.135 403.622 421.5 439.486 421.5 479C421.5 518.514 394.135 554.378 349.695 580.392C305.267 606.398 243.858 622.5 176 622.5C108.142 622.5 46.7327 606.398 2.30469 580.392C-42.1353 554.378 -69.5 518.514 -69.5 479C-69.5 439.486 -42.1353 403.622 2.30469 377.608C46.7327 351.602 108.142 335.5 176 335.5Z" stroke="url(#paint4_radial_26_582)" stroke-opacity="0.5"/>
</g>
</g>
<defs>
<radialGradient id="paint0_radial_26_582" cx="0" cy="0" r="1" gradientUnits="userSpaceOnUse" gradientTransform="translate(175 40) rotate(90) scale(28 55.0721)">
<stop stop-color="white"/>
<stop offset="1" stop-color="white" stop-opacity="0"/>
</radialGradient>
<linearGradient id="paint1_linear_26_582" x1="175" y1="40" x2="175" y2="160" gradientUnits="userSpaceOnUse">
<stop stop-color="#515151"/>
<stop offset="1" stop-color="#515151" stop-opacity="0"/>
</linearGradient>
<linearGradient id="paint2_linear_26_582" x1="136" y1="164" x2="197.847" y2="179.94" gradientUnits="userSpaceOnUse">
<stop stop-opacity="0"/>
<stop offset="0.370192"/>
<stop offset="0.639423" stop-opacity="0"/>
<stop offset="1"/>
</linearGradient>
<linearGradient id="paint3_linear_26_582" x1="102" y1="213" x2="198.5" y2="262.5" gradientUnits="userSpaceOnUse">
<stop stop-opacity="0"/>
<stop offset="0.370192"/>
<stop offset="0.639423" stop-opacity="0"/>
<stop offset="1"/>
</linearGradient>
<radialGradient id="paint4_radial_26_582" cx="0" cy="0" r="1" gradientUnits="userSpaceOnUse" gradientTransform="translate(176 335) rotate(90) scale(54.9341 93.8457)">
<stop/>
<stop offset="1" stop-opacity="0"/>
</radialGradient>
<clipPath id="clip0_26_582">
<rect width="351" height="119" fill="white" transform="translate(0 327)"/>
</clipPath>
</defs>
</svg>
