<svg width="15" height="16" viewBox="0 0 15 16" fill="none" xmlns="http://www.w3.org/2000/svg">
<path d="M7.5 12.5C8.32843 12.5 9 13.1716 9 14C9 14.8284 8.32843 15.5 7.5 15.5C6.67157 15.5 6 14.8284 6 14C6 13.1716 6.67157 12.5 7.5 12.5ZM7.5 6.5C8.32843 6.5 9 7.17157 9 8C9 8.82843 8.32843 9.5 7.5 9.5C6.67157 9.5 6 8.82843 6 8C6 7.17157 6.67157 6.5 7.5 6.5ZM7.5 0.5C8.32843 0.5 9 1.17157 9 2C9 2.82843 8.32843 3.5 7.5 3.5C6.67157 3.5 6 2.82843 6 2C6 1.17157 6.67157 0.5 7.5 0.5Z" fill="#4D4D4D"/>
</svg>
