<svg width="20" height="452" viewBox="0 0 20 452" fill="none" xmlns="http://www.w3.org/2000/svg">
<mask id="path-1-inside-1_26_652" fill="white">
<path d="M0 40C0 34.4771 4.47715 30 10 30H20V422H10C4.47715 422 0 417.523 0 412V40Z"/>
</mask>
<path d="M-1 40C-1 33.9249 3.92487 29 10 29H20V31H10C5.02944 31 1 35.0294 1 40H-1ZM20 423H10C3.92487 423 -1 418.075 -1 412H1C1 416.971 5.02944 421 10 421H20V423ZM10 423C3.92487 423 -1 418.075 -1 412V40C-1 33.9249 3.92487 29 10 29V31C5.02944 31 1 35.0294 1 40V412C1 416.971 5.02944 421 10 421V423ZM20 30V422V30Z" fill="#D9D9D9" mask="url(#path-1-inside-1_26_652)"/>
</svg>
