<svg width="20" height="20" viewBox="0 0 20 20" fill="none" xmlns="http://www.w3.org/2000/svg">
<path d="M13.0869 6.875C13.7135 6.87504 14.2205 7.01484 14.54 7.1416L14.3193 8.49512L14.1729 8.42871C13.8797 8.30202 13.4925 8.1751 12.9658 8.18848C12.3263 8.18855 12.0398 8.46188 12.0332 8.72852C12.0335 9.02164 12.3799 9.21539 12.9463 9.50195C13.8797 9.94856 14.3131 10.4947 14.3066 11.208C14.2935 12.5078 13.1863 13.3477 11.4863 13.3477C10.7596 13.3409 10.0596 13.1877 9.67969 13.0146L9.90625 11.6074L10.1201 11.708C10.6466 11.9414 10.9931 12.041 11.6396 12.041C12.1061 12.041 12.6069 11.8475 12.6133 11.4277C12.6132 11.1545 12.4 10.954 11.7734 10.6475C11.1602 10.3474 10.3404 9.84801 10.3535 8.94824C10.3604 7.72846 11.487 6.875 13.0869 6.875ZM8.66699 13.2539H7.04688L8.05957 6.98828H9.67969L8.66699 13.2539ZM20 13.2539H18.5C18.4963 13.2358 18.3526 12.5317 18.3066 12.3145H16.2266C16.1672 12.4788 15.8942 13.2333 15.8867 13.2539H14.1865L16.5928 7.50879C16.7595 7.10225 17.0532 6.98834 17.4395 6.98828H18.6934L20 13.2539ZM2.63379 6.98828C2.98689 7.00156 3.27296 7.11562 3.36621 7.51562L3.93359 10.3945L4.10645 11.2617L5.69336 6.98828H7.40625L4.86035 13.248H3.14648L1.70215 7.80273C1.20406 7.51161 0.635496 7.27774 0 7.11523L0.0263672 6.98828H2.63379ZM17.3398 9.28125C17.3398 9.28125 16.8271 10.6735 16.6934 11.0342H18.04C17.9735 10.7215 17.6686 9.23452 17.666 9.22168L17.5527 8.68164C17.476 8.90551 17.3444 9.26447 17.3398 9.28125Z" fill="#00579F"/>
</svg>
